<?xml version="1.0" encoding="utf-8"?>
<!-- Generator: Adobe Illustrator 23.1.1, SVG Export Plug-In . SVG Version: 6.00 Build 0)  -->
<svg version="1.1" id="Layer_1" xmlns="http://www.w3.org/2000/svg" xmlns:xlink="http://www.w3.org/1999/xlink" x="0px" y="0px"
	 viewBox="0 0 512 512" style="enable-background:new 0 0 512 512;" xml:space="preserve">
<style type="text/css">
	.st0{fill:#2F7476;}
	.st1{fill:#FFFFFF;}
	.st2{fill:none;}
	.st3{fill:#525252;}
	.st4{fill:#3A9EBA;}
	.st5{fill:#7E3619;}
	.st6{fill:#AFD340;}
	.st7{fill:#8D9CA8;}
	.st8{fill:#AAB8C7;}
</style>
<path class="st0" d="M48.6,4.9L48.6,4.9H22.9v471.3l145.3,17.3l95.7-13.4V4.9H48.6z"/>
<g>
	<g>
		<path class="st1" d="M114.8,61.3h71.9v73.8h-71.9V61.3z"/>
	</g>
</g>
<g>
	<g>
		<path class="st1" d="M114.8,200.2h71.9V274h-71.9V200.2z"/>
	</g>
</g>
<g>
	<g>
		<path class="st1" d="M114.8,339.1h71.9V413h-71.9V339.1z"/>
	</g>
</g>
<rect x="404.8" y="485.4" class="st2" width="0" height="6"/>
<rect x="404.8" y="412.5" class="st2" width="0" height="40.9"/>
<path class="st3" d="M346.4,381c0-40.9,33.3-74.1,74.2-74.1c5.4,0,10.7,0.6,15.7,1.7V75.4h-148v410h106.4v-34.9
	C366.6,439.9,346.4,412.8,346.4,381z"/>
<rect x="404.8" y="453.4" class="st4" width="0" height="31.9"/>
<polygon class="st5" points="404.8,412.5 404.8,453.4 404.8,485.4 404.8,491.4 436.4,491.4 436.4,412.5 "/>
<path class="st6" d="M436.3,318.9c-5-1.3-10.3-2-15.7-2c-35.4,0-64.1,28.8-64.1,64.1s28.8,64.1,64.1,64.1c1,0,2-0.1,3.1-0.2
	c33.9-1.6,61.1-29.7,61.1-64C484.7,351.1,464.1,326,436.3,318.9z"/>
<path class="st7" d="M489.1,476.2H263.9l-11.3,20.6l11.3,11.1h225.2V476.2z"/>
<path class="st8" d="M22.9,476.2h241v31.7h-241V476.2z"/>
<g>
	<g>
		<path class="st1" d="M344.5,116.9h48.5v61.9h-48.5V116.9z"/>
	</g>
</g>
<g>
	<g>
		<path class="st1" d="M344.5,221.6h48.5v61.9h-48.5V221.6z"/>
	</g>
</g>
</svg>
