<?xml version="1.0" encoding="utf-8"?>
<!-- Generator: Adobe Illustrator 23.1.1, SVG Export Plug-In . SVG Version: 6.00 Build 0)  -->
<svg version="1.1" id="Capa_1" xmlns="http://www.w3.org/2000/svg" xmlns:xlink="http://www.w3.org/1999/xlink" x="0px" y="0px"
	 viewBox="0 0 409.2 409.2" style="enable-background:new 0 0 409.2 409.2;" xml:space="preserve">
<style type="text/css">
	.st0{fill:#FFFFFF;}
	.st1{fill:#1A5799;}
</style>
<circle class="st0" cx="204.6" cy="204.6" r="187.2"/>
<path class="st1" d="M405,204.6C405,94.1,315.1,4.2,204.6,4.2S4.2,94.1,4.2,204.6c0,58.4,25.1,111,65,147.6l-0.2,0.2l6.5,5.5
	c0.4,0.4,0.9,0.6,1.3,1c3.5,2.9,7,5.6,10.7,8.2c1.2,0.9,2.4,1.7,3.6,2.5c3.9,2.7,7.9,5.2,12,7.6c0.9,0.5,1.8,1,2.7,1.5
	c4.5,2.5,9,4.9,13.7,7.1c0.3,0.2,0.7,0.3,1,0.5c15.2,7.1,31.5,12.3,48.5,15.3c0.4,0.1,0.9,0.2,1.3,0.2c5.3,0.9,10.6,1.6,16,2.1
	c0.7,0.1,1.3,0.1,2,0.2c5.4,0.4,10.8,0.7,16.3,0.7s10.8-0.3,16.2-0.7c0.7-0.1,1.4-0.1,2-0.2c5.4-0.5,10.6-1.2,15.9-2.1
	c0.5-0.1,0.9-0.2,1.4-0.2c16.7-3,32.8-8.1,47.8-15c0.6-0.3,1.1-0.5,1.7-0.8c4.5-2.1,8.9-4.4,13.2-6.8c1.1-0.6,2.1-1.2,3.2-1.8
	c3.9-2.3,7.8-4.7,11.5-7.3c1.3-0.9,2.7-1.9,4-2.8c3.2-2.3,6.3-4.7,9.4-7.2c0.7-0.5,1.4-1,2.1-1.6l6.7-5.6l-0.2-0.2
	C379.7,316.1,405,263.3,405,204.6z M27.5,203.5c0-97.6,79.4-177.1,177.1-177.1s177.1,79.4,177.1,177.1c0,52.6-23.1,99.9-59.6,132.4
	c-2-1.4-4.1-2.7-6.2-3.7L257,302.7c-5.3-2.6-8.6-7.9-8.6-13.8v-20.5c1.4-1.7,2.8-3.6,4.3-5.7c7.6-10.7,13.7-22.7,18.2-35.6
	c8.8-4.2,14.5-12.9,14.5-22.8v-24.6c0-6-2.2-11.9-6.2-16.4v-32.4c0.4-3.6,1.6-23.9-13.1-40.7c-12.8-14.6-33.5-22-61.6-22
	s-48.8,7.4-61.6,22c-14.7,16.8-13.4,37.1-13.1,40.7v32.4c-3.9,4.6-6.2,10.4-6.2,16.4v24.6c0,7.6,3.4,14.8,9.3,19.6
	c5.6,22,17.2,38.7,21.5,44.4v20.1c0,5.7-3.1,10.9-8.1,13.6l-54.9,29.9c-1.7,1-3.5,2.1-5.2,3.3C50.3,302.7,27.5,255.7,27.5,203.5z"/>
</svg>
