<?xml version="1.0" encoding="utf-8"?>
<!-- Generator: Adobe Illustrator 23.1.1, SVG Export Plug-In . SVG Version: 6.00 Build 0)  -->
<svg version="1.1" id="Capa_1" xmlns="http://www.w3.org/2000/svg" xmlns:xlink="http://www.w3.org/1999/xlink" x="0px" y="0px"
	 viewBox="0 0 15.6 15.6" style="enable-background:new 0 0 15.6 15.6;" xml:space="preserve">
<style type="text/css">
	.st0{fill:#D8A325;}
	.st1{fill:#938363;}
</style>
<g>
	<path class="st0" d="M11.9,6.7l-0.2,0.2l-0.4-0.4l-0.4-0.4l0.2-0.2l-0.4-0.4l-0.2,0.2l-0.1-0.1L9.8,5L10,4.8L9.6,4.3L9.3,4.6l0,0
		L8.5,3.8l0.2-0.2L8.3,3L8,3.3L7.5,2.8l-7.3,7.3l1.4,1.4c0.5-0.5,1.6-0.4,2.3,0.3c0.7,0.7,0.8,1.8,0.3,2.3l1.4,1.4l7.3-7.3L12,7.2
		L12.2,7L11.9,6.7z"/>
	<path class="st1" d="M9,3.3l0.3,0.3l0.5,0.5L9.6,4.3L10,4.8l0.3-0.3L11,5.2l0,0l-0.2,0.2l0.4,0.4l0.2-0.2L11.8,6l0.4,0.4l-0.2,0.2
		L12.2,7l0.2-0.2l0.8,0.8l2.1-2.1l-1.4-1.4c0,0.1-0.1,0.2-0.2,0.2c-0.5,0.5-1.6,0.4-2.3-0.3c-0.7-0.7-0.8-1.8-0.3-2.3
		c0.1-0.1,0.2-0.1,0.2-0.2l-1.4-1.4L8,2.3l0.5,0.5L8.3,3l0.5,0.5L9,3.3z"/>
</g>
</svg>
