<?xml version="1.0" encoding="utf-8"?>
<!-- Generator: Adobe Illustrator 23.1.1, SVG Export Plug-In . SVG Version: 6.00 Build 0)  -->
<svg version="1.1" id="Capa_1" xmlns="http://www.w3.org/2000/svg" xmlns:xlink="http://www.w3.org/1999/xlink" x="0px" y="0px"
	 viewBox="0 0 58 58" style="enable-background:new 0 0 58 58;" xml:space="preserve">
<style type="text/css">
	.st0{fill:#CDBFBA;}
	.st1{fill:#FFFFFF;}
	.st2{fill:#E8E8E8;}
	.st3{fill:#129336;}
	.st4{fill:#19571D;}
	.st5{fill:#554E56;}
</style>
<g>
	<path class="st0" d="M50.8,57.4H7.2c-1.9,0-3.4-1.5-3.4-3.4v-4.7l50.5-9.2V54C54.2,55.9,52.7,57.4,50.8,57.4z"/>
	<path class="st1" d="M41.6,55.9H7.2c-1.9,0-3.4-1.5-3.4-3.4V8.7c0-1.9,1.5-3.4,3.4-3.4h43.7c1.9,0,3.4,1.5,3.4,3.4v34.6
		c0,0.9-2.1,1.8-2.7,2.4L44,53.3C43.4,53.9,42.5,55.9,41.6,55.9z"/>
	<path class="st2" d="M41.6,55.9c0.9,0,1.8-0.4,2.4-1l9.3-9.3c0.6-0.6,1-1.5,1-2.4v-1.4c0,1.5-1.2,2.8-2.8,2.8h-5.7
		c-1.5,0-2.8,1.2-2.8,2.8v5.7c0,1.5-1.2,2.8-2.8,2.8L41.6,55.9L41.6,55.9z"/>
	<path class="st3" d="M54.2,5.3v11.1H3.8V5.3c0,0,0,0,0,0L54.2,5.3C54.2,5.3,54.2,5.3,54.2,5.3z"/>
	<g>
		<g>
			<path class="st4" d="M13.4,11.2c-0.6,0-1.2,0-1.7,0c-1.4,0-2.6-1.2-2.6-2.6V5.3h1.7v3.3c0,0.5,0.4,0.9,0.9,0.9
				C12.2,9.5,13.8,11.2,13.4,11.2z"/>
		</g>
		<g>
			<path class="st4" d="M44.2,11.2c0,0-1.2,0-1.7,0c-1.4,0-2.6-1.2-2.6-2.6V5.3h1.7v3.3c0,0.5,0.4,0.9,0.9,0.9
				C43,9.5,44.2,10.7,44.2,11.2z"/>
		</g>
	</g>
	<g>
		<g>
			<path class="st5" d="M14.7,5.3V3.1c0-0.5-0.4-0.9-0.9-0.9h-0.4c-0.5,0-0.9,0.4-0.9,0.9v5.5c0,0.5,0.4,0.9,0.9,0.9
				c0.5,0,0.8,0.4,0.8,0.8c0,0.5-0.4,0.8-0.8,0.8c-1.4,0-2.6-1.2-2.6-2.6V3.1c0-1.4,1.2-2.6,2.6-2.6h0.4c1.4,0,2.6,1.2,2.6,2.6v2.1
				L14.7,5.3z"/>
		</g>
		<g>
			<path class="st5" d="M45.5,5.3V3.1c0-0.5-0.4-0.9-0.9-0.9h-0.4c-0.5,0-0.9,0.4-0.9,0.9v5.5c0,0.5,0.4,0.9,0.9,0.9
				c0.5,0,0.8,0.4,0.8,0.8c0,0.5-0.4,0.8-0.8,0.8c-1.4,0-2.6-1.2-2.6-2.6V3.1c0-1.4,1.2-2.6,2.6-2.6h0.4c1.4,0,2.6,1.2,2.6,2.6v2.1
				L45.5,5.3z"/>
		</g>
	</g>
</g>
</svg>
